STARTFONT 2.1
FONT -Bitstream-Charter-Medium-R-Normal--19-180-75-75-P-106-ISO8859-15
SIZE 18 75 75
FONTBOUNDINGBOX 18 22 -1 -4

STARTPROPERTIES 25
FONTNAME_REGISTRY ""
FAMILY_NAME "Charter"
FOUNDRY "Bitstream"
WEIGHT_NAME "Medium"
SETWIDTH_NAME "Normal"
SLANT "R"
ADD_STYLE_NAME ""
PIXEL_SIZE 19
POINT_SIZE 180
RESOLUTION_X 75
RESOLUTION_Y 75
SPACING "P"
AVERAGE_WIDTH 106
CHARSET_REGISTRY "ISO8859"
CHARSET_ENCODING "15"
CAP_HEIGHT 13
X_HEIGHT 9
CHARSET_COLLECTIONS "ASCII ISOLATIN1"
FACE_NAME "Bitstream Charter Roman"
COPYRIGHT "Copyright 1987 by Bitstream Inc. Charter Registered trademark of Bitstream Inc."
WEIGHT 10
QUAD_WIDTH 11
DEFAULT_CHAR 0
FONT_DESCENT 4
FONT_ASCENT 18
ENDPROPERTIES

CHARS 191

STARTCHAR space
ENCODING 32
SWIDTH 278 0
DWIDTH 5 0
BBX 1 1 0 0
BITMAP
00
ENDCHAR

STARTCHAR exclam
ENCODING 33
SWIDTH 338 0
DWIDTH 6 0
BBX 2 13 2 0
BITMAP
C0
C0
C0
C0
C0
C0
C0
C0
C0
40
00
C0
C0
ENDCHAR

STARTCHAR quotedbl
ENCODING 34
SWIDTH 331 0
DWIDTH 7 0
BBX 5 5 1 9
BITMAP
D8
D8
D8
48
48
ENDCHAR

STARTCHAR numbersign
ENCODING 35
SWIDTH 745 0
DWIDTH 14 0
BBX 12 14 1 0
BITMAP
0220
0440
0440
0440
7FF0
0880
0880
1100
FFE0
1100
2200
2200
2200
4400
ENDCHAR

STARTCHAR dollar
ENCODING 36
SWIDTH 556 0
DWIDTH 10 0
BBX 9 17 1 -2
BITMAP
0800
0800
1F00
6900
C900
C800
C800
7800
3E00
0F00
0980
8980
8980
8B00
FC00
0800
0800
ENDCHAR

STARTCHAR percent
ENCODING 37
SWIDTH 852 0
DWIDTH 16 0
BBX 14 13 1 0
BITMAP
7020
5820
8840
88C0
8880
8938
8B44
7244
0444
0444
0844
102C
1038
ENDCHAR

STARTCHAR ampersand
ENCODING 38
SWIDTH 704 0
DWIDTH 13 0
BBX 12 13 1 0
BITMAP
1C00
2600
6300
6300
3600
1C00
38F0
6C40
C640
C340
E180
73C0
3C70
ENDCHAR

STARTCHAR quoteright
ENCODING 39
SWIDTH 201 0
DWIDTH 4 0
BBX 2 5 1 9
BITMAP
C0
C0
40
40
80
ENDCHAR

STARTCHAR parenleft
ENCODING 40
SWIDTH 417 0
DWIDTH 8 0
BBX 6 16 2 -2
BITMAP
0C
10
20
60
40
C0
C0
C0
C0
C0
C0
40
60
20
10
0C
ENDCHAR

STARTCHAR parenright
ENCODING 41
SWIDTH 417 0
DWIDTH 8 0
BBX 6 16 0 -2
BITMAP
C0
20
10
18
08
0C
0C
0C
0C
0C
0C
08
18
10
20
C0
ENDCHAR

STARTCHAR asterisk
ENCODING 42
SWIDTH 500 0
DWIDTH 9 0
BBX 7 7 1 7
BITMAP
10
10
D6
6C
10
28
2C
ENDCHAR

STARTCHAR plus
ENCODING 43
SWIDTH 833 0
DWIDTH 16 0
BBX 11 11 3 0
BITMAP
0400
0400
0400
0400
0400
FFE0
0400
0400
0400
0400
0400
ENDCHAR

STARTCHAR comma
ENCODING 44
SWIDTH 278 0
DWIDTH 5 0
BBX 2 5 1 -3
BITMAP
C0
C0
40
40
80
ENDCHAR

STARTCHAR hyphen
ENCODING 45
SWIDTH 319 0
DWIDTH 6 0
BBX 4 1 1 5
BITMAP
F0
ENDCHAR

STARTCHAR period
ENCODING 46
SWIDTH 278 0
DWIDTH 5 0
BBX 2 2 2 0
BITMAP
C0
C0
ENDCHAR

STARTCHAR slash
ENCODING 47
SWIDTH 481 0
DWIDTH 9 0
BBX 10 14 -1 -1
BITMAP
00C0
0080
0100
0100
0200
0600
0400
0800
1800
1000
2000
2000
4000
C000
ENDCHAR

STARTCHAR zero
ENCODING 48
SWIDTH 556 0
DWIDTH 10 0
BBX 9 13 1 0
BITMAP
1C00
2200
6300
4180
C180
C180
C180
C180
C180
4180
6300
2200
1C00
ENDCHAR

STARTCHAR one
ENCODING 49
SWIDTH 556 0
DWIDTH 10 0
BBX 6 13 2 0
BITMAP
38
D8
18
18
18
18
18
18
18
18
18
18
7C
ENDCHAR

STARTCHAR two
ENCODING 50
SWIDTH 556 0
DWIDTH 10 0
BBX 8 13 1 0
BITMAP
3C
46
C3
C3
03
03
06
04
08
10
21
41
FF
ENDCHAR

STARTCHAR three
ENCODING 51
SWIDTH 556 0
DWIDTH 10 0
BBX 8 13 1 0
BITMAP
3C
46
C6
42
02
04
18
06
03
03
C3
C6
78
ENDCHAR

STARTCHAR four
ENCODING 52
SWIDTH 556 0
DWIDTH 10 0
BBX 9 14 1 -1
BITMAP
0600
0E00
0E00
1600
2600
2600
4600
C600
FF80
0600
0600
0600
0600
0600
ENDCHAR

STARTCHAR five
ENCODING 53
SWIDTH 556 0
DWIDTH 10 0
BBX 9 13 0 0
BITMAP
7F00
6000
6000
6000
6000
7E00
0300
0180
0180
0180
4100
E300
3C00
ENDCHAR

STARTCHAR six
ENCODING 54
SWIDTH 556 0
DWIDTH 10 0
BBX 9 14 1 0
BITMAP
0600
1800
3000
6000
4000
DE00
E300
C180
C180
C180
C180
6100
2300
1C00
ENDCHAR

STARTCHAR seven
ENCODING 55
SWIDTH 556 0
DWIDTH 10 0
BBX 9 14 1 -1
BITMAP
FF80
8180
8100
0300
0200
0600
0400
0C00
0800
1000
1000
2000
2000
6000
ENDCHAR

STARTCHAR eight
ENCODING 56
SWIDTH 556 0
DWIDTH 10 0
BBX 9 13 1 0
BITMAP
1E00
2300
6100
6100
6300
3200
1E00
6300
C180
C180
C180
6300
1E00
ENDCHAR

STARTCHAR nine
ENCODING 57
SWIDTH 556 0
DWIDTH 10 0
BBX 9 13 1 0
BITMAP
1C00
6300
C180
C180
C180
C180
6380
3F00
0200
0600
0C00
1800
6000
ENDCHAR

STARTCHAR colon
ENCODING 58
SWIDTH 319 0
DWIDTH 6 0
BBX 2 9 2 0
BITMAP
C0
C0
00
00
00
00
00
C0
C0
ENDCHAR

STARTCHAR semicolon
ENCODING 59
SWIDTH 319 0
DWIDTH 6 0
BBX 3 12 1 -3
BITMAP
60
60
00
00
00
00
00
60
60
20
20
C0
ENDCHAR

STARTCHAR less
ENCODING 60
SWIDTH 833 0
DWIDTH 16 0
BBX 11 10 2 1
BITMAP
0020
01C0
0700
3800
E000
E000
3800
0700
01C0
0020
ENDCHAR

STARTCHAR equal
ENCODING 61
SWIDTH 833 0
DWIDTH 16 0
BBX 11 5 3 4
BITMAP
FFE0
0000
0000
0000
FFE0
ENDCHAR

STARTCHAR greater
ENCODING 62
SWIDTH 833 0
DWIDTH 16 0
BBX 11 10 3 1
BITMAP
8000
7000
1C00
0380
00E0
00E0
0380
1C00
7000
8000
ENDCHAR

STARTCHAR question
ENCODING 63
SWIDTH 486 0
DWIDTH 9 0
BBX 7 13 1 0
BITMAP
78
CC
C6
06
06
04
08
10
20
20
00
30
30
ENDCHAR

STARTCHAR at
ENCODING 64
SWIDTH 942 0
DWIDTH 18 0
BBX 15 16 2 -2
BITMAP
03E0
0C18
1004
6004
41D2
4332
8622
8C22
8C22
8C64
8CE8
C770
6000
3000
1C18
07E0
ENDCHAR

STARTCHAR A
ENCODING 65
SWIDTH 639 0
DWIDTH 12 0
BBX 12 13 0 0
BITMAP
0400
0600
0E00
0A00
1300
1100
1180
3F80
2080
20C0
40C0
4060
E1F0
ENDCHAR

STARTCHAR B
ENCODING 66
SWIDTH 604 0
DWIDTH 11 0
BBX 9 13 1 0
BITMAP
FC00
6700
6300
6300
6300
6200
7E00
6300
6180
6180
6180
6300
FE00
ENDCHAR

STARTCHAR C
ENCODING 67
SWIDTH 632 0
DWIDTH 12 0
BBX 10 13 1 0
BITMAP
0F80
30C0
6040
6040
C000
C000
C000
C000
C000
6040
6040
3840
0F80
ENDCHAR

STARTCHAR D
ENCODING 68
SWIDTH 694 0
DWIDTH 13 0
BBX 11 13 1 0
BITMAP
FE00
6180
60C0
60C0
6060
6060
6060
6060
6060
60C0
60C0
6380
FE00
ENDCHAR

STARTCHAR E
ENCODING 69
SWIDTH 576 0
DWIDTH 11 0
BBX 9 13 1 0
BITMAP
FF00
6100
6100
6000
6200
6200
7E00
6200
6200
6000
6080
6080
FF80
ENDCHAR

STARTCHAR F
ENCODING 70
SWIDTH 537 0
DWIDTH 10 0
BBX 8 13 1 0
BITMAP
FF
61
61
60
62
62
7E
62
62
60
60
60
F0
ENDCHAR

STARTCHAR G
ENCODING 71
SWIDTH 694 0
DWIDTH 13 0
BBX 11 13 1 0
BITMAP
0FC0
30C0
60C0
6040
C000
C000
C000
C1E0
C0C0
60C0
60C0
30C0
0F80
ENDCHAR

STARTCHAR H
ENCODING 72
SWIDTH 738 0
DWIDTH 14 0
BBX 12 13 1 0
BITMAP
F0F0
6060
6060
6060
6060
6060
7FE0
6060
6060
6060
6060
6060
F0F0
ENDCHAR

STARTCHAR I
ENCODING 73
SWIDTH 324 0
DWIDTH 6 0
BBX 4 13 1 0
BITMAP
F0
60
60
60
60
60
60
60
60
60
60
60
F0
ENDCHAR

STARTCHAR J
ENCODING 74
SWIDTH 444 0
DWIDTH 8 0
BBX 7 13 0 0
BITMAP
1E
0C
0C
0C
0C
0C
0C
0C
0C
8C
8C
98
F0
ENDCHAR

STARTCHAR K
ENCODING 75
SWIDTH 611 0
DWIDTH 12 0
BBX 11 13 1 0
BITMAP
F3E0
6080
6100
6200
6400
6800
7C00
6C00
6600
6300
6380
6180
F0E0
ENDCHAR

STARTCHAR L
ENCODING 76
SWIDTH 520 0
DWIDTH 10 0
BBX 9 13 1 0
BITMAP
F000
6000
6000
6000
6000
6000
6000
6000
6000
6080
6080
6080
FF80
ENDCHAR

STARTCHAR M
ENCODING 77
SWIDTH 866 0
DWIDTH 16 0
BBX 14 13 1 0
BITMAP
E03C
7038
7078
5058
5858
5898
4898
4C98
4D18
4718
4718
4218
E23C
ENDCHAR

STARTCHAR N
ENCODING 78
SWIDTH 713 0
DWIDTH 13 0
BBX 11 13 1 0
BITMAP
E0E0
6040
7040
5840
5840
4C40
4640
4640
4340
41C0
41C0
40C0
E0C0
ENDCHAR

STARTCHAR O
ENCODING 79
SWIDTH 731 0
DWIDTH 14 0
BBX 12 13 1 0
BITMAP
0F00
30C0
6060
6060
C030
C030
C030
C030
C030
6060
6060
30C0
0F00
ENDCHAR

STARTCHAR P
ENCODING 80
SWIDTH 558 0
DWIDTH 10 0
BBX 8 13 1 0
BITMAP
FC
66
63
63
63
63
66
7C
60
60
60
60
F0
ENDCHAR

STARTCHAR Q
ENCODING 81
SWIDTH 731 0
DWIDTH 14 0
BBX 12 16 1 -3
BITMAP
0F00
30C0
6060
6060
C030
C030
C030
C030
C030
6060
6060
30C0
0F80
0600
0300
03E0
ENDCHAR

STARTCHAR R
ENCODING 82
SWIDTH 646 0
DWIDTH 12 0
BBX 11 13 1 0
BITMAP
FE00
6300
6180
6180
6180
6300
7C00
6300
6300
6100
6180
6180
F0E0
ENDCHAR

STARTCHAR S
ENCODING 83
SWIDTH 556 0
DWIDTH 10 0
BBX 8 13 1 0
BITMAP
3E
62
C2
C0
C0
70
3C
0E
03
83
83
C6
F8
ENDCHAR

STARTCHAR T
ENCODING 84
SWIDTH 597 0
DWIDTH 11 0
BBX 10 13 1 0
BITMAP
FFC0
8C40
8C40
0C00
0C00
0C00
0C00
0C00
0C00
0C00
0C00
0C00
1E00
ENDCHAR

STARTCHAR U
ENCODING 85
SWIDTH 694 0
DWIDTH 13 0
BBX 11 13 1 0
BITMAP
F1E0
60C0
60C0
60C0
60C0
60C0
60C0
60C0
60C0
60C0
60C0
3180
1E00
ENDCHAR

STARTCHAR V
ENCODING 86
SWIDTH 618 0
DWIDTH 12 0
BBX 13 13 0 0
BITMAP
F878
6030
3020
3020
1040
1840
18C0
0C80
0C80
0500
0700
0700
0200
ENDCHAR

STARTCHAR W
ENCODING 87
SWIDTH 928 0
DWIDTH 17 0
BBX 17 13 0 0
BITMAP
F0C780
60C100
61C100
216200
216200
336200
322200
123400
163400
1C1400
1C1C00
0C1800
080800
ENDCHAR

STARTCHAR X
ENCODING 88
SWIDTH 600 0
DWIDTH 12 0
BBX 12 13 0 0
BITMAP
F8F0
3040
18C0
1880
0D00
0600
0600
0F00
0980
1180
20C0
60C0
F1F0
ENDCHAR

STARTCHAR Y
ENCODING 89
SWIDTH 586 0
DWIDTH 11 0
BBX 12 13 0 0
BITMAP
F0F0
6020
3040
1080
1880
0D00
0F00
0600
0600
0600
0600
0600
1F80
ENDCHAR

STARTCHAR Z
ENCODING 90
SWIDTH 586 0
DWIDTH 11 0
BBX 9 13 1 0
BITMAP
FF80
C180
8300
0600
0600
0C00
0800
1800
3000
3080
6080
C080
FF80
ENDCHAR

STARTCHAR bracketleft
ENCODING 91
SWIDTH 421 0
DWIDTH 8 0
BBX 5 16 2 -2
BITMAP
F8
C0
C0
C0
C0
C0
C0
C0
C0
C0
C0
C0
C0
C0
C0
F8
ENDCHAR

STARTCHAR backslash
ENCODING 92
SWIDTH 481 0
DWIDTH 9 0
BBX 9 14 0 -1
BITMAP
C000
4000
2000
2000
1000
1000
0800
0800
0400
0600
0200
0100
0100
0080
ENDCHAR

STARTCHAR bracketright
ENCODING 93
SWIDTH 421 0
DWIDTH 8 0
BBX 5 16 1 -2
BITMAP
F8
18
18
18
18
18
18
18
18
18
18
18
18
18
18
F8
ENDCHAR

STARTCHAR asciicircum
ENCODING 94
SWIDTH 1000 0
DWIDTH 19 0
BBX 11 5 4 9
BITMAP
0E00
1B00
3180
60C0
8020
ENDCHAR

STARTCHAR underscore
ENCODING 95
SWIDTH 500 0
DWIDTH 9 0
BBX 9 1 0 -4
BITMAP
FF80
ENDCHAR

STARTCHAR quoteleft
ENCODING 96
SWIDTH 201 0
DWIDTH 4 0
BBX 2 5 1 9
BITMAP
40
80
80
C0
C0
ENDCHAR

STARTCHAR a
ENCODING 97
SWIDTH 507 0
DWIDTH 9 0
BBX 8 9 1 0
BITMAP
3C
66
06
0E
36
C6
C6
CE
77
ENDCHAR

STARTCHAR b
ENCODING 98
SWIDTH 539 0
DWIDTH 10 0
BBX 8 14 1 0
BITMAP
E0
60
60
60
60
7C
66
63
63
63
63
62
64
78
ENDCHAR

STARTCHAR c
ENCODING 99
SWIDTH 446 0
DWIDTH 8 0
BBX 6 9 1 0
BITMAP
38
2C
4C
C0
C0
C0
C0
64
38
ENDCHAR

STARTCHAR d
ENCODING 100
SWIDTH 565 0
DWIDTH 10 0
BBX 8 14 1 0
BITMAP
0E
06
06
06
06
1E
26
46
C6
C6
C6
C6
6E
37
ENDCHAR

STARTCHAR e
ENCODING 101
SWIDTH 491 0
DWIDTH 9 0
BBX 7 9 1 0
BITMAP
18
64
C6
FE
C0
C0
40
62
3C
ENDCHAR

STARTCHAR f
ENCODING 102
SWIDTH 321 0
DWIDTH 6 0
BBX 6 14 1 0
BITMAP
1C
34
20
60
60
F8
60
60
60
60
60
60
60
F0
ENDCHAR

STARTCHAR g
ENCODING 103
SWIDTH 523 0
DWIDTH 10 0
BBX 9 13 1 -4
BITMAP
3C00
6780
C300
C300
6600
3C00
2000
3E00
C380
8180
C180
C300
7C00
ENDCHAR

STARTCHAR h
ENCODING 104
SWIDTH 564 0
DWIDTH 11 0
BBX 9 14 1 0
BITMAP
E000
6000
6000
6000
6000
7E00
6300
6300
6300
6300
6300
6300
6300
F780
ENDCHAR

STARTCHAR i
ENCODING 105
SWIDTH 280 0
DWIDTH 5 0
BBX 4 14 1 0
BITMAP
60
60
60
00
00
E0
60
60
60
60
60
60
60
F0
ENDCHAR

STARTCHAR j
ENCODING 106
SWIDTH 266 0
DWIDTH 5 0
BBX 5 18 -1 -4
BITMAP
18
18
18
00
00
38
18
18
18
18
18
18
18
18
18
18
90
E0
ENDCHAR

STARTCHAR k
ENCODING 107
SWIDTH 518 0
DWIDTH 10 0
BBX 9 14 1 0
BITMAP
E000
6000
6000
6000
6000
6700
6200
6400
6800
7800
6C00
6600
6300
F380
ENDCHAR

STARTCHAR l
ENCODING 108
SWIDTH 282 0
DWIDTH 5 0
BBX 4 14 1 0
BITMAP
E0
60
60
60
60
60
60
60
60
60
60
60
60
F0
ENDCHAR

STARTCHAR m
ENCODING 109
SWIDTH 843 0
DWIDTH 16 0
BBX 14 9 1 0
BITMAP
FEF0
6318
6318
6318
6318
6318
6318
6318
F7BC
ENDCHAR

STARTCHAR n
ENCODING 110
SWIDTH 569 0
DWIDTH 11 0
BBX 9 9 1 0
BITMAP
FF00
6300
6300
6300
6300
6300
6300
6300
F780
ENDCHAR

STARTCHAR o
ENCODING 111
SWIDTH 539 0
DWIDTH 10 0
BBX 8 9 1 0
BITMAP
18
66
42
C3
C3
C3
42
66
18
ENDCHAR

STARTCHAR p
ENCODING 112
SWIDTH 551 0
DWIDTH 10 0
BBX 8 13 1 -4
BITMAP
FE
66
63
63
63
63
62
64
78
60
60
60
F0
ENDCHAR

STARTCHAR q
ENCODING 113
SWIDTH 531 0
DWIDTH 9 0
BBX 8 13 1 -4
BITMAP
1E
26
46
C6
C6
C6
C6
66
3E
06
06
06
0F
ENDCHAR

STARTCHAR r
ENCODING 114
SWIDTH 382 0
DWIDTH 7 0
BBX 6 9 1 0
BITMAP
EC
70
60
60
60
60
60
60
F0
ENDCHAR

STARTCHAR s
ENCODING 115
SWIDTH 400 0
DWIDTH 7 0
BBX 5 9 1 0
BITMAP
38
58
D8
C0
30
18
98
90
E0
ENDCHAR

STARTCHAR t
ENCODING 116
SWIDTH 335 0
DWIDTH 6 0
BBX 5 11 1 0
BITMAP
20
60
F8
60
60
60
60
60
60
60
38
ENDCHAR

STARTCHAR u
ENCODING 117
SWIDTH 569 0
DWIDTH 11 0
BBX 9 9 1 0
BITMAP
E700
6300
6300
6300
6300
6300
6300
6300
3F80
ENDCHAR

STARTCHAR v
ENCODING 118
SWIDTH 494 0
DWIDTH 10 0
BBX 10 9 0 0
BITMAP
F3C0
6080
2100
2100
3200
1200
1C00
1C00
0800
ENDCHAR

STARTCHAR w
ENCODING 119
SWIDTH 771 0
DWIDTH 14 0
BBX 14 9 0 0
BITMAP
F13C
6308
2310
3390
3490
14A0
1CE0
1860
0840
ENDCHAR

STARTCHAR x
ENCODING 120
SWIDTH 504 0
DWIDTH 9 0
BBX 9 9 0 0
BITMAP
F780
6200
3600
1C00
0800
1C00
2600
4300
E780
ENDCHAR

STARTCHAR y
ENCODING 121
SWIDTH 495 0
DWIDTH 10 0
BBX 10 13 0 -4
BITMAP
F1C0
6080
2100
3100
1200
1A00
1A00
0C00
0C00
0800
0800
5000
6000
ENDCHAR

STARTCHAR z
ENCODING 122
SWIDTH 468 0
DWIDTH 9 0
BBX 7 9 1 0
BITMAP
FE
84
8C
18
30
20
62
C2
FE
ENDCHAR

STARTCHAR braceleft
ENCODING 123
SWIDTH 486 0
DWIDTH 9 0
BBX 7 16 1 -2
BITMAP
0E
18
10
10
10
10
30
C0
30
10
10
10
10
10
18
0E
ENDCHAR

STARTCHAR bar
ENCODING 124
SWIDTH 500 0
DWIDTH 9 0
BBX 1 19 4 -4
BITMAP
80
80
80
80
80
80
80
80
80
80
80
80
80
80
80
80
80
80
80
ENDCHAR

STARTCHAR braceright
ENCODING 125
SWIDTH 486 0
DWIDTH 9 0
BBX 7 16 1 -2
BITMAP
E0
30
10
10
10
10
18
06
18
10
10
10
10
10
30
E0
ENDCHAR

STARTCHAR c0126
ENCODING 126
SWIDTH 1000 0
DWIDTH 19 0
BBX 11 2 4 11
BITMAP
3C60
C780
ENDCHAR

STARTCHAR space
ENCODING 160
SWIDTH 278 0
DWIDTH 5 0
BBX 1 1 0 0
BITMAP
00
ENDCHAR

STARTCHAR exclamdown
ENCODING 161
SWIDTH 338 0
DWIDTH 6 0
BBX 2 13 2 0
BITMAP
C0
C0
00
40
C0
C0
C0
C0
C0
C0
C0
C0
C0
ENDCHAR

STARTCHAR cent
ENCODING 162
SWIDTH 556 0
DWIDTH 10 0
BBX 7 13 1 -2
BITMAP
08
08
1E
2A
4A
C8
C8
C8
4A
6A
1E
08
08
ENDCHAR

STARTCHAR sterling
ENCODING 163
SWIDTH 556 0
DWIDTH 10 0
BBX 9 13 1 0
BITMAP
0F00
1980
1180
3000
3000
3000
3000
7E00
3000
3000
2000
6000
FF80
ENDCHAR

STARTCHAR EuroSign
ENCODING 164
SWIDTH 500 0
DWIDTH 9 0
BBX 10 12 -1 0
BITMAP
07C0
18C0
1040
3000
FF80
3000
FF00
3000
3000
1840
1880
0F00
ENDCHAR

STARTCHAR yen
ENCODING 165
SWIDTH 556 0
DWIDTH 11 0
BBX 11 13 0 0
BITMAP
F1E0
6040
2080
3180
3100
FBE0
1A00
0C00
FFE0
0C00
0C00
0C00
1F00
ENDCHAR

STARTCHAR Scaron
ENCODING 166
SWIDTH 556 0
DWIDTH 10 0
BBX 8 17 1 0
BITMAP
22
14
14
08
3E
62
C2
C0
C0
70
3C
0E
03
83
83
C6
F8
ENDCHAR

STARTCHAR section
ENCODING 167
SWIDTH 500 0
DWIDTH 9 0
BBX 7 16 1 -2
BITMAP
3C
64
C4
60
30
38
4E
C6
C6
64
38
1C
0C
46
4C
78
ENDCHAR

STARTCHAR scaron
ENCODING 168
SWIDTH 400 0
DWIDTH 7 0
BBX 5 13 1 0
BITMAP
88
50
50
20
38
58
D8
C0
30
18
98
90
E0
ENDCHAR

STARTCHAR copyright
ENCODING 169
SWIDTH 900 0
DWIDTH 17 0
BBX 15 15 1 -1
BITMAP
07C0
1830
2008
43E4
4E24
8C22
9802
9802
9802
8C22
4E24
43E4
2008
1830
07C0
ENDCHAR

STARTCHAR ordfeminine
ENCODING 170
SWIDTH 380 0
DWIDTH 7 0
BBX 6 6 1 6
BITMAP
70
C8
18
68
98
6C
ENDCHAR

STARTCHAR guillemotleft
ENCODING 171
SWIDTH 442 0
DWIDTH 8 0
BBX 7 7 0 2
BITMAP
22
66
CC
88
CC
66
22
ENDCHAR

STARTCHAR logicalnot
ENCODING 172
SWIDTH 833 0
DWIDTH 16 0
BBX 11 5 3 4
BITMAP
FFE0
0020
0020
0020
0020
ENDCHAR

STARTCHAR hyphen
ENCODING 173
SWIDTH 319 0
DWIDTH 6 0
BBX 4 1 1 5
BITMAP
F0
ENDCHAR

STARTCHAR registered
ENCODING 174
SWIDTH 900 0
DWIDTH 17 0
BBX 15 15 1 -1
BITMAP
07C0
1830
2008
4FC4
44E4
8462
84C2
8782
84C2
8462
4464
4E3C
2008
1830
07C0
ENDCHAR

STARTCHAR macron
ENCODING 175
SWIDTH 500 0
DWIDTH 9 0
BBX 5 1 2 12
BITMAP
F8
ENDCHAR

STARTCHAR degree
ENCODING 176
SWIDTH 329 0
DWIDTH 6 0
BBX 5 5 1 9
BITMAP
70
88
88
88
70
ENDCHAR

STARTCHAR plusminus
ENCODING 177
SWIDTH 833 0
DWIDTH 16 0
BBX 11 10 3 1
BITMAP
0400
0400
0400
FFE0
0400
0400
0400
0000
0000
FFE0
ENDCHAR

STARTCHAR twosuperior
ENCODING 178
SWIDTH 367 0
DWIDTH 7 0
BBX 6 8 1 5
BITMAP
78
8C
84
04
08
30
44
FC
ENDCHAR

STARTCHAR threesuperior
ENCODING 179
SWIDTH 367 0
DWIDTH 7 0
BBX 6 8 1 5
BITMAP
78
8C
08
30
0C
04
8C
70
ENDCHAR

STARTCHAR Zcaron
ENCODING 180
SWIDTH 586 0
DWIDTH 11 0
BBX 9 17 1 0
BITMAP
2200
1400
1400
0800
FF80
C180
8300
0600
0600
0C00
0800
1800
3000
3080
6080
C080
FF80
ENDCHAR

STARTCHAR mu
ENCODING 181
SWIDTH 548 0
DWIDTH 10 0
BBX 11 11 -1 -3
BITMAP
3080
3180
2180
2100
2100
6320
6340
5DC0
4000
C000
8000
ENDCHAR

STARTCHAR paragraph
ENCODING 182
SWIDTH 484 0
DWIDTH 9 0
BBX 9 14 0 -1
BITMAP
1F80
7D00
FD00
FD00
FD00
7D00
3D00
0100
0100
0100
0100
0100
0100
0100
ENDCHAR

STARTCHAR periodcentered
ENCODING 183
SWIDTH 278 0
DWIDTH 5 0
BBX 2 2 2 6
BITMAP
C0
C0
ENDCHAR

STARTCHAR zcaron
ENCODING 184
SWIDTH 468 0
DWIDTH 9 0
BBX 7 13 1 0
BITMAP
44
28
28
10
FE
84
8C
18
30
20
62
C2
FE
ENDCHAR

STARTCHAR onesuperior
ENCODING 185
SWIDTH 367 0
DWIDTH 7 0
BBX 3 8 2 5
BITMAP
40
C0
40
40
40
40
40
E0
ENDCHAR

STARTCHAR ordmasculine
ENCODING 186
SWIDTH 405 0
DWIDTH 8 0
BBX 7 6 1 6
BITMAP
38
46
82
82
46
38
ENDCHAR

STARTCHAR guillemotright
ENCODING 187
SWIDTH 442 0
DWIDTH 8 0
BBX 7 7 1 2
BITMAP
88
CC
66
22
66
CC
88
ENDCHAR

STARTCHAR Ligature_OE
ENCODING 188
SWIDTH 888 0
DWIDTH 16 0
BBX 15 12 1 0
BITMAP
1FFC
3184
6184
C190
C190
C1F0
C190
C190
C180
6182
3184
1FFC
ENDCHAR

STARTCHAR Ligature_oe
ENCODING 189
SWIDTH 722 0
DWIDTH 13 0
BBX 11 8 1 0
BITMAP
39C0
4E60
C7E0
C600
C600
C720
67E0
39C0
ENDCHAR

STARTCHAR Ydiaeresis
ENCODING 190
SWIDTH 586 0
DWIDTH 11 0
BBX 12 17 0 0
BITMAP
0D80
0D80
0000
0000
F0F0
6020
3040
1080
1880
0D00
0F00
0600
0600
0600
0600
0600
1F80
ENDCHAR

STARTCHAR questiondown
ENCODING 191
SWIDTH 486 0
DWIDTH 9 0
BBX 7 13 1 0
BITMAP
18
18
00
08
08
10
20
40
C0
C0
C6
66
3C
ENDCHAR

STARTCHAR Agrave
ENCODING 192
SWIDTH 639 0
DWIDTH 12 0
BBX 12 17 0 0
BITMAP
1800
0C00
0400
0200
0400
0600
0E00
0A00
1300
1100
1180
3F80
2080
20C0
40C0
4060
E1F0
ENDCHAR

STARTCHAR Aacute
ENCODING 193
SWIDTH 639 0
DWIDTH 12 0
BBX 12 17 0 0
BITMAP
0300
0600
0400
0800
0400
0600
0E00
0A00
1300
1100
1180
3F80
2080
20C0
40C0
4060
E1F0
ENDCHAR

STARTCHAR Acircumflex
ENCODING 194
SWIDTH 639 0
DWIDTH 12 0
BBX 12 17 0 0
BITMAP
0400
0A00
0A00
1100
0400
0600
0E00
0A00
1300
1100
1180
3F80
2080
20C0
40C0
4060
E1F0
ENDCHAR

STARTCHAR Atilde
ENCODING 195
SWIDTH 639 0
DWIDTH 12 0
BBX 12 17 0 0
BITMAP
0900
1F00
1200
0000
0400
0600
0E00
0A00
1300
1100
1180
3F80
2080
20C0
40C0
4060
E1F0
ENDCHAR

STARTCHAR Adieresis
ENCODING 196
SWIDTH 639 0
DWIDTH 12 0
BBX 12 17 0 0
BITMAP
1B00
1B00
0000
0000
0400
0600
0E00
0A00
1300
1100
1180
3F80
2080
20C0
40C0
4060
E1F0
ENDCHAR

STARTCHAR Aring
ENCODING 197
SWIDTH 639 0
DWIDTH 12 0
BBX 12 18 0 0
BITMAP
0C00
1200
1200
0C00
0000
0400
0600
0E00
0A00
1300
1100
1180
3F80
2080
20C0
40C0
4060
E1F0
ENDCHAR

STARTCHAR AE
ENCODING 198
SWIDTH 866 0
DWIDTH 16 0
BBX 16 13 -1 0
BITMAP
03FE
01C2
02C2
02C0
04C4
08C4
08FC
1FC4
10C0
20C0
20C1
40C1
E1FF
ENDCHAR

STARTCHAR Ccedilla
ENCODING 199
SWIDTH 632 0
DWIDTH 12 0
BBX 10 17 1 -4
BITMAP
0F80
30C0
6040
6040
C000
C000
C000
C000
C000
6040
6040
3840
0F80
0400
0700
0100
0E00
ENDCHAR

STARTCHAR Egrave
ENCODING 200
SWIDTH 576 0
DWIDTH 11 0
BBX 9 17 1 0
BITMAP
3000
1800
0800
0400
FF00
6100
6100
6000
6200
6200
7E00
6200
6200
6000
6080
6080
FF80
ENDCHAR

STARTCHAR Eacute
ENCODING 201
SWIDTH 576 0
DWIDTH 11 0
BBX 9 17 1 0
BITMAP
0600
0C00
0800
1000
FF00
6100
6100
6000
6200
6200
7E00
6200
6200
6000
6080
6080
FF80
ENDCHAR

STARTCHAR Ecircumflex
ENCODING 202
SWIDTH 576 0
DWIDTH 11 0
BBX 9 17 1 0
BITMAP
0800
1400
1400
2200
FF00
6100
6100
6000
6200
6200
7E00
6200
6200
6000
6080
6080
FF80
ENDCHAR

STARTCHAR Edieresis
ENCODING 203
SWIDTH 576 0
DWIDTH 11 0
BBX 9 17 1 0
BITMAP
3600
3600
0000
0000
FF00
6100
6100
6000
6200
6200
7E00
6200
6200
6000
6080
6080
FF80
ENDCHAR

STARTCHAR Igrave
ENCODING 204
SWIDTH 324 0
DWIDTH 6 0
BBX 5 17 0 0
BITMAP
C0
60
20
10
78
30
30
30
30
30
30
30
30
30
30
30
78
ENDCHAR

STARTCHAR Iacute
ENCODING 205
SWIDTH 324 0
DWIDTH 6 0
BBX 4 17 1 0
BITMAP
30
60
40
80
F0
60
60
60
60
60
60
60
60
60
60
60
F0
ENDCHAR

STARTCHAR Icircumflex
ENCODING 206
SWIDTH 324 0
DWIDTH 6 0
BBX 5 17 0 0
BITMAP
20
50
50
88
78
30
30
30
30
30
30
30
30
30
30
30
78
ENDCHAR

STARTCHAR Idieresis
ENCODING 207
SWIDTH 324 0
DWIDTH 6 0
BBX 5 17 0 0
BITMAP
D8
D8
00
00
78
30
30
30
30
30
30
30
30
30
30
30
78
ENDCHAR

STARTCHAR Eth
ENCODING 208
SWIDTH 694 0
DWIDTH 13 0
BBX 12 13 0 0
BITMAP
7F00
31C0
3060
3060
3030
3030
FE30
3030
3030
3020
3060
30C0
7F00
ENDCHAR

STARTCHAR Ntilde
ENCODING 209
SWIDTH 713 0
DWIDTH 13 0
BBX 11 17 1 0
BITMAP
0900
1F00
1200
0000
E0E0
6040
7040
5840
5840
4C40
4640
4640
4340
41C0
41C0
40C0
E0C0
ENDCHAR

STARTCHAR Ograve
ENCODING 210
SWIDTH 731 0
DWIDTH 14 0
BBX 12 17 1 0
BITMAP
1800
0C00
0400
0200
0F00
30C0
6060
6060
C030
C030
C030
C030
C030
6060
6060
30C0
0F00
ENDCHAR

STARTCHAR Oacute
ENCODING 211
SWIDTH 731 0
DWIDTH 14 0
BBX 12 17 1 0
BITMAP
0300
0600
0400
0800
0F00
30C0
6060
6060
C030
C030
C030
C030
C030
6060
6060
30C0
0F00
ENDCHAR

STARTCHAR Ocircumflex
ENCODING 212
SWIDTH 731 0
DWIDTH 14 0
BBX 12 17 1 0
BITMAP
0400
0A00
0A00
1100
0F00
30C0
6060
6060
C030
C030
C030
C030
C030
6060
6060
30C0
0F00
ENDCHAR

STARTCHAR Otilde
ENCODING 213
SWIDTH 731 0
DWIDTH 14 0
BBX 12 17 1 0
BITMAP
0900
1F00
1200
0000
0F00
30C0
6060
6060
C030
C030
C030
C030
C030
6060
6060
30C0
0F00
ENDCHAR

STARTCHAR Odieresis
ENCODING 214
SWIDTH 731 0
DWIDTH 14 0
BBX 12 17 1 0
BITMAP
1B00
1B00
0000
0000
0F00
30C0
6060
6060
C030
C030
C030
C030
C030
6060
6060
30C0
0F00
ENDCHAR

STARTCHAR multiply
ENCODING 215
SWIDTH 833 0
DWIDTH 16 0
BBX 10 10 3 1
BITMAP
8040
4080
2100
1200
0C00
0C00
1200
2100
4080
8040
ENDCHAR

STARTCHAR Oslash
ENCODING 216
SWIDTH 731 0
DWIDTH 14 0
BBX 12 16 1 -1
BITMAP
0040
0060
0F40
30C0
60E0
6160
C130
C230
C430
C430
C830
6860
7060
30C0
2F00
4000
ENDCHAR

STARTCHAR Ugrave
ENCODING 217
SWIDTH 694 0
DWIDTH 13 0
BBX 11 17 1 0
BITMAP
1800
0C00
0400
0200
F1E0
60C0
60C0
60C0
60C0
60C0
60C0
60C0
60C0
60C0
60C0
3180
1E00
ENDCHAR

STARTCHAR Uacute
ENCODING 218
SWIDTH 694 0
DWIDTH 13 0
BBX 11 17 1 0
BITMAP
0300
0600
0400
0800
F1E0
60C0
60C0
60C0
60C0
60C0
60C0
60C0
60C0
60C0
60C0
3180
1E00
ENDCHAR

STARTCHAR Ucircumflex
ENCODING 219
SWIDTH 694 0
DWIDTH 13 0
BBX 11 17 1 0
BITMAP
0400
0A00
0A00
1100
F1E0
60C0
60C0
60C0
60C0
60C0
60C0
60C0
60C0
60C0
60C0
3180
1E00
ENDCHAR

STARTCHAR Udieresis
ENCODING 220
SWIDTH 694 0
DWIDTH 13 0
BBX 11 17 1 0
BITMAP
1B00
1B00
0000
0000
F1E0
60C0
60C0
60C0
60C0
60C0
60C0
60C0
60C0
60C0
60C0
3180
1E00
ENDCHAR

STARTCHAR Yacute
ENCODING 221
SWIDTH 586 0
DWIDTH 11 0
BBX 12 17 0 0
BITMAP
0300
0600
0400
0800
F0F0
6020
3040
1080
1880
0D00
0F00
0600
0600
0600
0600
0600
1F80
ENDCHAR

STARTCHAR Thorn
ENCODING 222
SWIDTH 558 0
DWIDTH 10 0
BBX 8 13 1 0
BITMAP
F0
60
7C
66
63
63
63
63
66
7C
60
60
F0
ENDCHAR

STARTCHAR germandbls
ENCODING 223
SWIDTH 609 0
DWIDTH 11 0
BBX 9 14 1 0
BITMAP
0C00
1200
2200
6200
6200
6400
6800
6C00
6600
6300
6180
6980
6900
F600
ENDCHAR

STARTCHAR agrave
ENCODING 224
SWIDTH 507 0
DWIDTH 9 0
BBX 8 14 1 0
BITMAP
60
30
10
08
00
3C
66
06
0E
36
C6
C6
CE
77
ENDCHAR

STARTCHAR aacute
ENCODING 225
SWIDTH 507 0
DWIDTH 9 0
BBX 8 14 1 0
BITMAP
0C
18
10
20
00
3C
66
06
0E
36
C6
C6
CE
77
ENDCHAR

STARTCHAR acircumflex
ENCODING 226
SWIDTH 507 0
DWIDTH 9 0
BBX 8 14 1 0
BITMAP
10
28
28
44
00
3C
66
06
0E
36
C6
C6
CE
77
ENDCHAR

STARTCHAR atilde
ENCODING 227
SWIDTH 507 0
DWIDTH 9 0
BBX 8 14 1 0
BITMAP
24
7C
48
00
00
3C
66
06
0E
36
C6
C6
CE
77
ENDCHAR

STARTCHAR adieresis
ENCODING 228
SWIDTH 507 0
DWIDTH 9 0
BBX 8 14 1 0
BITMAP
6C
6C
00
00
00
3C
66
06
0E
36
C6
C6
CE
77
ENDCHAR

STARTCHAR aring
ENCODING 229
SWIDTH 507 0
DWIDTH 9 0
BBX 8 15 1 0
BITMAP
18
24
24
24
18
00
3C
66
06
0E
36
C6
C6
CE
77
ENDCHAR

STARTCHAR ae
ENCODING 230
SWIDTH 725 0
DWIDTH 14 0
BBX 12 9 1 0
BITMAP
3DC0
6760
6630
0630
1FF0
6600
C600
C710
79E0
ENDCHAR

STARTCHAR ccedilla
ENCODING 231
SWIDTH 446 0
DWIDTH 8 0
BBX 6 13 1 -4
BITMAP
38
2C
4C
C0
C0
C0
C0
64
38
10
1C
04
38
ENDCHAR

STARTCHAR egrave
ENCODING 232
SWIDTH 491 0
DWIDTH 9 0
BBX 7 14 1 0
BITMAP
60
30
10
08
00
18
64
C6
FE
C0
C0
40
62
3C
ENDCHAR

STARTCHAR eacute
ENCODING 233
SWIDTH 491 0
DWIDTH 9 0
BBX 7 14 1 0
BITMAP
0C
18
10
20
00
18
64
C6
FE
C0
C0
40
62
3C
ENDCHAR

STARTCHAR ecircumflex
ENCODING 234
SWIDTH 491 0
DWIDTH 9 0
BBX 7 14 1 0
BITMAP
10
28
28
44
00
18
64
C6
FE
C0
C0
40
62
3C
ENDCHAR

STARTCHAR edieresis
ENCODING 235
SWIDTH 491 0
DWIDTH 9 0
BBX 7 14 1 0
BITMAP
6C
6C
00
00
00
18
64
C6
FE
C0
C0
40
62
3C
ENDCHAR

STARTCHAR igrave
ENCODING 236
SWIDTH 280 0
DWIDTH 5 0
BBX 5 14 0 0
BITMAP
C0
60
20
10
00
70
30
30
30
30
30
30
30
78
ENDCHAR

STARTCHAR iacute
ENCODING 237
SWIDTH 280 0
DWIDTH 5 0
BBX 4 14 1 0
BITMAP
30
60
40
80
00
E0
60
60
60
60
60
60
60
F0
ENDCHAR

STARTCHAR icircumflex
ENCODING 238
SWIDTH 280 0
DWIDTH 5 0
BBX 5 14 0 0
BITMAP
20
50
50
88
00
70
30
30
30
30
30
30
30
78
ENDCHAR

STARTCHAR idieresis
ENCODING 239
SWIDTH 280 0
DWIDTH 5 0
BBX 5 14 0 0
BITMAP
D8
D8
00
00
00
70
30
30
30
30
30
30
30
78
ENDCHAR

STARTCHAR eth
ENCODING 240
SWIDTH 528 0
DWIDTH 10 0
BBX 8 14 1 0
BITMAP
34
1C
18
2C
04
1E
62
43
C3
C3
C3
42
64
18
ENDCHAR

STARTCHAR ntilde
ENCODING 241
SWIDTH 569 0
DWIDTH 11 0
BBX 9 14 1 0
BITMAP
1200
3E00
2400
0000
0000
FF00
6300
6300
6300
6300
6300
6300
6300
F780
ENDCHAR

STARTCHAR ograve
ENCODING 242
SWIDTH 539 0
DWIDTH 10 0
BBX 8 14 1 0
BITMAP
30
18
08
04
00
18
66
42
C3
C3
C3
42
66
18
ENDCHAR

STARTCHAR oacute
ENCODING 243
SWIDTH 539 0
DWIDTH 10 0
BBX 8 14 1 0
BITMAP
06
0C
08
10
00
18
66
42
C3
C3
C3
42
66
18
ENDCHAR

STARTCHAR ocircumflex
ENCODING 244
SWIDTH 539 0
DWIDTH 10 0
BBX 8 14 1 0
BITMAP
08
14
14
22
00
18
66
42
C3
C3
C3
42
66
18
ENDCHAR

STARTCHAR otilde
ENCODING 245
SWIDTH 539 0
DWIDTH 10 0
BBX 8 14 1 0
BITMAP
12
3E
24
00
00
18
66
42
C3
C3
C3
42
66
18
ENDCHAR

STARTCHAR odieresis
ENCODING 246
SWIDTH 539 0
DWIDTH 10 0
BBX 8 14 1 0
BITMAP
36
36
00
00
00
18
66
42
C3
C3
C3
42
66
18
ENDCHAR

STARTCHAR divide
ENCODING 247
SWIDTH 833 0
DWIDTH 16 0
BBX 12 9 2 2
BITMAP
0600
0600
0000
0000
FFF0
0000
0000
0600
0600
ENDCHAR

STARTCHAR oslash
ENCODING 248
SWIDTH 539 0
DWIDTH 10 0
BBX 8 12 1 -1
BITMAP
02
02
1C
66
4A
CB
D3
D3
62
66
58
40
ENDCHAR

STARTCHAR ugrave
ENCODING 249
SWIDTH 569 0
DWIDTH 11 0
BBX 9 14 1 0
BITMAP
3000
1800
0800
0400
0000
E700
6300
6300
6300
6300
6300
6300
6300
3F80
ENDCHAR

STARTCHAR uacute
ENCODING 250
SWIDTH 569 0
DWIDTH 11 0
BBX 9 14 1 0
BITMAP
0600
0C00
0800
1000
0000
E700
6300
6300
6300
6300
6300
6300
6300
3F80
ENDCHAR

STARTCHAR ucircumflex
ENCODING 251
SWIDTH 569 0
DWIDTH 11 0
BBX 9 14 1 0
BITMAP
0800
1400
1400
2200
0000
E700
6300
6300
6300
6300
6300
6300
6300
3F80
ENDCHAR

STARTCHAR udieresis
ENCODING 252
SWIDTH 569 0
DWIDTH 11 0
BBX 9 14 1 0
BITMAP
3600
3600
0000
0000
0000
E700
6300
6300
6300
6300
6300
6300
6300
3F80
ENDCHAR

STARTCHAR yacute
ENCODING 253
SWIDTH 495 0
DWIDTH 10 0
BBX 10 18 0 -4
BITMAP
0600
0C00
0800
1000
0000
F1C0
6080
2100
3100
1200
1A00
1A00
0C00
0C00
0800
0800
5000
6000
ENDCHAR

STARTCHAR thorn
ENCODING 254
SWIDTH 551 0
DWIDTH 10 0
BBX 8 18 1 -4
BITMAP
E0
60
60
60
60
7C
66
63
63
63
63
62
64
78
60
60
60
F0
ENDCHAR

STARTCHAR ydieresis
ENCODING 255
SWIDTH 495 0
DWIDTH 10 0
BBX 10 18 0 -4
BITMAP
3600
3600
0000
0000
0000
F1C0
6080
2100
3100
1200
1A00
1A00
0C00
0C00
0800
0800
5000
6000
ENDCHAR
ENDFONT
